# xmcd
#
# Track frame offsets: 
#        150
#        15662
#        26044
#        37551
#        48113
#        70765
#        83210
#        100755
#        113185
#        127077
#        136222
#
# Disc length: 2020 seconds
#
# Revision: 5
# Processed by: cddbd v1.5.2PL0 Copyright (c) Steve Scherf et al.
# Submitted via: ExactAudioCopy v1.0b1
#
DISCID=8307e20b
DTITLE=The J. Geils Band - The J. Geils Band
DYEAR=1970
DGENRE=Blues Rock
TTITLE0=Wait
TTITLE1=Ice Breaker
TTITLE2=Cruisin' For A Love
TTITLE3=Hard Drivin' Man
TTITLE4=Serves You Right To Suffer
TTITLE5=Homework
TTITLE6=First I Look At The Purse
TTITLE7=What's Your Hurry
TTITLE8=On Borrowed Time
TTITLE9=Pack Fair And Square
TTITLE10=Sno-Cone
EXTD=
EXTT0=
EXTT1=
EXTT2=
EXTT3=
EXTT4=
EXTT5=
EXTT6=
EXTT7=
EXTT8=
EXTT9=
EXTT10=
PLAYORDER=
